<?xml version="1.0" standalone="no"?>
<!DOCTYPE svg PUBLIC "-//W3C//DTD SVG 20010904//EN"
 "http://www.w3.org/TR/2001/REC-SVG-20010904/DTD/svg10.dtd">
<svg version="1.0" xmlns="http://www.w3.org/2000/svg"
 width="2000.000000pt" height="2000.000000pt" viewBox="0 0 2000.000000 2000.000000"
 preserveAspectRatio="xMidYMid meet">

<g transform="translate(0.000000,2000.000000) scale(0.100000,-0.100000)"
fill="#000000" stroke="none">
<path d="M10177 15973 c-59 -76 -310 -403 -497 -648 -55 -71 -136 -177 -180
-235 -45 -58 -107 -139 -138 -180 -114 -149 -464 -606 -502 -655 l-39 -50
-153 -29 c-84 -15 -184 -34 -223 -41 -38 -7 -122 -23 -185 -35 -207 -39 -201
-37 -240 -87 -19 -25 -53 -68 -76 -97 -22 -28 -83 -107 -135 -174 -52 -68
-112 -147 -134 -176 -95 -121 -378 -488 -463 -600 -51 -66 -97 -122 -101 -124
-5 -2 -93 85 -197 193 -124 129 -195 195 -209 195 -14 0 -51 -42 -127 -143
-59 -78 -152 -199 -205 -269 -54 -69 -125 -162 -158 -205 -33 -43 -164 -213
-291 -378 -126 -165 -274 -358 -328 -429 -53 -70 -102 -134 -109 -141 -7 -7
-70 -90 -142 -185 -71 -95 -143 -189 -160 -210 -16 -20 -41 -51 -55 -70 -14
-18 -94 -123 -179 -234 -85 -110 -180 -235 -212 -276 -31 -41 -116 -151 -188
-245 -72 -93 -131 -177 -131 -186 0 -20 26 -32 46 -21 7 4 75 68 151 143 76
74 199 193 273 264 196 187 587 563 795 765 360 350 876 845 883 848 4 1 15
-53 25 -120 10 -68 29 -190 42 -273 13 -82 26 -166 29 -185 4 -30 19 -130 57
-375 5 -33 14 -92 19 -132 15 -101 18 -115 29 -126 21 -21 48 3 106 94 69 109
188 295 310 484 46 72 118 184 160 250 42 66 118 185 170 265 52 80 112 174
135 210 57 90 207 324 289 450 38 58 117 182 177 275 136 214 223 350 254 397
28 41 4 36 305 68 55 6 115 13 133 16 38 7 38 8 11 -76 -20 -65 -226 -745
-323 -1070 -29 -96 -50 -183 -48 -192 7 -30 40 -20 69 21 16 22 71 106 124
188 137 210 446 684 546 838 47 72 149 229 228 350 79 121 181 279 228 350 47
72 130 199 184 283 l100 154 7 -69 c7 -68 14 -177 37 -603 6 -124 16 -235 20
-248 20 -52 42 -20 164 225 66 133 123 245 126 248 4 4 43 -27 86 -67 44 -40
122 -111 175 -158 52 -47 195 -175 318 -285 266 -239 252 -228 274 -212 16 12
17 22 6 107 -21 182 -29 256 -45 390 -8 74 -18 149 -21 165 -6 30 -6 30 14 10
11 -11 100 -112 198 -225 99 -113 206 -236 239 -274 33 -38 78 -90 100 -116
33 -39 134 -154 346 -395 15 -16 58 -66 98 -110 70 -78 81 -98 61 -110 -5 -3
-44 -52 -86 -108 -98 -130 -223 -292 -369 -481 -107 -137 -373 -484 -379 -495
-9 -14 11 -41 30 -41 7 0 56 27 109 60 53 33 97 60 99 60 2 0 86 50 187 111
101 61 419 253 706 425 l522 314 23 -22 c13 -13 70 -63 127 -113 58 -49 132
-115 166 -145 33 -30 108 -95 165 -145 96 -83 152 -133 255 -225 22 -19 73
-64 115 -99 41 -35 77 -67 80 -71 3 -4 39 -36 80 -71 41 -35 82 -71 91 -79 8
-8 62 -55 119 -105 57 -49 129 -112 160 -140 31 -27 127 -113 215 -190 88 -77
185 -162 215 -190 31 -27 101 -89 156 -136 54 -48 142 -124 194 -170 52 -45
115 -101 140 -123 25 -23 79 -70 119 -106 41 -36 101 -89 133 -118 60 -54 99
-66 106 -31 2 9 -46 75 -105 146 -59 72 -155 188 -212 257 -58 70 -112 136
-121 146 -9 10 -63 76 -121 146 -57 70 -142 173 -189 229 -47 56 -157 189
-245 296 -88 106 -209 252 -268 324 -60 71 -123 148 -142 170 -18 22 -72 87
-119 145 -48 58 -133 161 -189 229 -56 68 -131 159 -167 201 -36 43 -89 106
-117 141 -29 35 -81 98 -114 139 -34 41 -65 77 -68 80 -4 3 -22 25 -41 50 -19
25 -37 47 -40 50 -3 3 -46 54 -95 115 -113 138 -121 148 -170 205 -22 26 -65
77 -95 115 -30 37 -61 74 -68 81 -29 31 -28 31 -201 -189 -40 -51 -82 -104
-124 -157 -7 -8 -23 -30 -36 -48 -13 -18 -27 -32 -31 -30 -6 2 -99 119 -223
282 -12 16 -49 64 -82 106 -33 43 -91 119 -130 170 -38 51 -92 120 -120 155
-27 34 -81 104 -120 155 -66 87 -234 305 -620 804 -234 303 -314 406 -394 511
-152 198 -409 532 -427 554 -7 9 -45 58 -85 109 -85 109 -98 113 -152 45z"/>
<path d="M11910 9514 c-202 -43 -342 -187 -372 -381 -29 -188 69 -386 232
-467 95 -48 149 -60 265 -60 119 0 200 17 295 60 94 43 90 33 90 236 l0 178
-115 0 -115 0 0 -124 0 -124 -44 -11 c-138 -34 -257 6 -322 109 -26 41 -29 53
-29 135 0 79 3 95 27 135 46 79 124 120 228 120 70 0 133 -21 182 -60 20 -17
40 -30 45 -30 4 0 42 32 83 70 l75 70 -40 36 c-111 101 -312 146 -485 108z"/>
<path d="M3068 9373 c-137 -307 -272 -611 -304 -685 l-33 -78 128 0 129 0 35
88 35 87 198 0 198 0 35 -87 34 -88 129 0 c70 0 128 4 128 8 0 5 -89 208 -198
453 l-197 444 -126 3 -125 3 -66 -148z m251 -252 c28 -69 51 -129 51 -133 0
-4 -52 -8 -115 -8 -63 0 -115 2 -115 5 0 6 100 257 107 268 9 15 20 -5 72
-132z"/>
<path d="M3870 9065 l0 -457 278 4 c271 4 279 4 351 31 88 31 169 84 211 138
125 156 125 412 0 568 -42 54 -123 107 -211 138 -72 27 -80 27 -351 31 l-278
4 0 -457z m523 231 c55 -20 104 -61 129 -109 32 -60 32 -184 0 -244 -47 -90
-124 -123 -288 -123 l-114 0 0 245 0 245 118 0 c71 -1 132 -6 155 -14z"/>
<path d="M4840 9518 c0 -2 87 -206 193 -453 l193 -450 126 -3 c95 -2 127 1
131 10 3 7 77 180 165 383 88 204 173 403 190 443 l31 73 -126 -3 -126 -3
-113 -265 c-62 -146 -118 -278 -124 -294 -6 -18 -14 -26 -20 -20 -5 5 -62 137
-128 294 l-119 285 -136 3 c-76 1 -137 1 -137 0z"/>
<path d="M5950 9065 l0 -455 365 0 366 0 -3 98 -3 97 -237 3 -238 2 0 80 0 80
200 0 200 0 0 100 0 100 -200 0 -200 0 0 75 0 75 230 0 230 0 0 100 0 100
-355 0 -355 0 0 -455z"/>
<path d="M6820 9065 l0 -455 125 0 125 0 0 236 c0 151 4 234 10 232 9 -3 77
-82 306 -355 l95 -113 104 0 105 0 0 455 0 455 -125 0 -125 0 0 -240 c0 -132
-3 -240 -7 -240 -5 1 -96 108 -203 240 l-195 239 -107 0 -108 1 0 -455z"/>
<path d="M7790 9415 l0 -105 140 0 140 0 0 -350 0 -351 128 3 127 3 0 348 0
347 141 0 142 0 1 105 2 105 -411 0 -410 0 0 -105z"/>
<path d="M8700 9241 c0 -153 5 -303 10 -332 32 -167 152 -274 339 -301 246
-36 443 78 491 284 5 24 10 175 10 336 l0 292 -125 0 -125 0 0 -284 c0 -185
-4 -295 -11 -317 -24 -70 -82 -109 -165 -109 -66 0 -118 32 -146 89 -22 44
-23 59 -26 334 l-3 287 -125 0 -124 0 0 -279z"/>
<path d="M9730 9065 l0 -455 130 0 130 0 0 120 0 120 73 0 73 0 82 -120 83
-120 135 0 135 0 -97 142 -98 142 25 15 c51 34 96 81 119 128 22 42 25 61 25
148 0 84 -4 107 -23 142 -33 63 -74 106 -131 136 -85 47 -160 57 -423 57
l-238 0 0 -455z m489 239 c53 -21 75 -56 75 -119 0 -102 -50 -135 -203 -135
l-101 0 0 135 0 135 95 0 c63 0 108 -5 134 -16z"/>
<path d="M10700 9065 l0 -455 365 0 365 0 0 100 0 100 -240 0 -240 0 0 80 0
80 205 0 205 0 0 100 0 100 -202 2 -203 3 -3 73 -3 72 231 0 230 0 0 100 0
100 -355 0 -355 0 0 -455z"/>
<path d="M12580 9065 l0 -455 365 0 365 0 0 100 0 100 -235 0 -235 0 0 80 0
80 200 0 200 0 0 100 0 100 -200 0 -200 0 0 75 0 75 228 2 227 3 3 98 3 97
-361 0 -360 0 0 -455z"/>
<path d="M13751 9503 c-16 -31 -391 -881 -391 -887 0 -3 57 -6 128 -6 l127 0
34 90 34 90 197 0 197 0 34 -87 35 -88 133 -3 c105 -2 132 0 128 10 -3 7 -94
212 -202 456 l-198 442 -123 0 c-107 0 -125 -2 -133 -17z m192 -380 c31 -75
55 -138 53 -140 -2 -2 -55 -2 -118 -1 l-115 3 55 138 c31 75 59 137 63 137 3
0 31 -62 62 -137z"/>
<path d="M14490 9066 l0 -456 125 0 125 0 0 120 0 120 78 0 77 -1 79 -119 79
-120 134 0 c73 0 133 2 133 5 0 3 -43 67 -95 142 -88 126 -94 139 -78 150 92
63 123 102 148 188 40 137 -15 283 -135 359 -84 54 -117 59 -402 64 l-268 4 0
-456z m483 240 c56 -23 72 -50 72 -121 0 -106 -44 -135 -205 -135 l-100 0 0
135 0 135 100 0 c63 0 113 -5 133 -14z"/>
<path d="M15830 9065 l0 -455 125 0 125 0 0 455 0 455 -125 0 -125 0 0 -455z"/>
<path d="M16270 9065 l0 -457 278 4 c313 5 354 13 468 86 73 47 108 88 146
169 59 125 59 271 0 396 -38 81 -73 122 -146 169 -114 73 -155 81 -468 86
l-278 4 0 -457z m557 217 c85 -45 129 -131 121 -240 -5 -73 -33 -128 -87 -169
-56 -44 -97 -53 -228 -53 l-113 0 0 246 0 246 133 -4 c112 -3 138 -7 174 -26z"/>
<path d="M15484 8876 c-94 -41 -111 -179 -29 -242 48 -36 103 -42 157 -15 54
26 78 65 78 126 0 63 -23 103 -73 126 -49 22 -90 23 -133 5z"/>
<path d="M8560 6515 l0 -155 110 0 c103 0 110 1 110 20 0 19 -7 20 -90 20
l-90 0 0 50 0 50 80 0 c73 0 80 2 80 20 0 18 -7 20 -80 20 l-80 0 0 45 0 44
87 3 c74 3 88 6 91 21 3 15 -7 17 -107 17 l-111 0 0 -155z"/>
<path d="M9070 6652 c-44 -22 -60 -62 -39 -100 11 -20 32 -33 84 -50 38 -12
76 -28 83 -36 20 -19 6 -55 -23 -62 -27 -7 -97 -1 -134 11 -39 13 -22 -26 19
-41 97 -35 190 5 190 82 0 26 -48 60 -105 74 -63 15 -90 39 -80 69 9 31 76 40
144 20 8 -2 16 4 19 13 2 12 -7 20 -35 27 -54 15 -83 14 -123 -7z"/>
<path d="M9452 6653 c2 -14 15 -19 56 -21 l52 -3 0 -135 c0 -127 1 -134 20
-134 19 0 20 7 20 134 l0 135 52 3 c41 2 54 7 56 21 3 15 -8 17 -128 17 -120
0 -131 -2 -128 -17z"/>
<path d="M10254 6656 c-18 -8 -35 -19 -39 -26 -12 -20 17 -30 39 -14 25 17 97
19 114 2 7 -7 12 -25 12 -42 0 -24 -16 -45 -80 -109 -44 -44 -80 -86 -80 -93
0 -11 23 -14 111 -14 100 0 110 2 107 18 -3 14 -17 18 -81 22 l-77 5 51 44
c61 52 89 95 89 136 -1 70 -85 106 -166 71z"/>
<path d="M10722 6650 c-40 -25 -62 -73 -62 -137 0 -168 198 -210 241 -51 35
134 -77 252 -179 188z m122 -53 c28 -38 28 -126 0 -164 -35 -47 -103 -43 -129
7 -28 55 -12 167 27 184 33 13 81 0 102 -27z"/>
<path d="M11174 6656 c-37 -17 -50 -34 -36 -48 7 -7 18 -5 33 6 48 33 129 13
129 -32 0 -25 -10 -37 -94 -122 -42 -43 -76 -82 -76 -89 0 -7 34 -11 110 -11
103 0 110 1 110 20 0 18 -7 20 -77 20 l-77 0 67 68 c81 81 94 121 55 166 -29
34 -96 44 -144 22z"/>
<path d="M11570 6650 c0 -18 7 -20 70 -20 39 0 70 -3 70 -6 0 -4 -16 -26 -35
-50 -42 -51 -44 -64 -7 -64 41 0 72 -26 72 -60 0 -38 -29 -54 -84 -47 -22 3
-52 7 -66 9 -39 5 -31 -25 10 -39 90 -31 172 2 178 69 4 49 -11 74 -52 89
l-35 13 40 47 c61 73 57 79 -61 79 -93 0 -100 -1 -100 -20z"/>
<path d="M7880 6480 c0 -18 7 -20 60 -20 53 0 60 2 60 20 0 18 -7 20 -60 20
-53 0 -60 -2 -60 -20z"/>
<path d="M12320 6480 c0 -18 6 -20 61 -20 52 0 60 2 57 18 -2 13 -15 18 -61
20 -52 3 -57 1 -57 -18z"/>
<path d="M5150 6129 c0 -25 -184 -338 -212 -360 -20 -15 -17 -18 63 -65 76
-44 90 -49 144 -49 199 2 309 238 177 379 -24 25 -154 116 -167 116 -3 0 -5
-9 -5 -21z m107 -91 c53 -36 74 -75 75 -137 0 -113 -116 -227 -208 -205 -30 7
-124 51 -124 58 0 2 43 76 96 165 62 105 99 159 107 154 7 -3 31 -19 54 -35z"/>
<path d="M14718 6072 l-127 -76 22 -20 c32 -30 207 -331 207 -355 0 -12 2 -21
5 -21 6 0 238 139 249 150 5 5 5 21 1 37 -6 23 -8 25 -16 11 -7 -13 -128 -92
-191 -125 -3 -1 -27 33 -54 78 -38 66 -44 83 -33 90 64 43 151 89 168 89 12 0
21 2 21 5 0 5 -23 45 -37 64 -1 2 -10 -6 -20 -18 -23 -28 -166 -113 -174 -103
-4 4 -21 32 -38 62 l-30 55 91 55 c51 30 100 54 110 54 24 0 22 7 -5 27 -22
16 -27 14 -149 -59z"/>
<path d="M5886 5723 c7 -27 -170 -380 -193 -385 -13 -3 -7 -10 24 -26 51 -27
52 -27 46 -3 -6 25 170 376 194 385 16 7 15 9 -7 21 -14 7 -35 16 -47 19 -17
6 -20 3 -17 -11z"/>
<path d="M13947 5658 c-74 -35 -86 -44 -73 -54 25 -18 189 -363 183 -385 -6
-24 -5 -24 44 1 39 21 40 21 20 38 -18 15 -126 222 -166 319 l-14 34 42 19
c57 26 101 25 127 -2 11 -12 20 -32 20 -44 0 -26 -37 -74 -73 -93 -35 -19 -23
-41 22 -41 47 0 146 -47 195 -93 l38 -36 37 18 c32 17 34 20 16 27 -11 4 -45
24 -76 44 -31 20 -84 44 -118 55 l-62 18 25 26 c54 57 54 128 -1 171 -40 31
-87 25 -186 -22z"/>
<path d="M6404 5456 c-12 -8 -27 -29 -34 -46 -18 -44 -2 -92 61 -176 45 -62
50 -73 45 -109 -13 -104 -132 -97 -203 12 -11 16 -12 16 -12 -9 -1 -14 -4 -33
-7 -42 -4 -11 0 -16 13 -16 11 0 28 -9 38 -20 42 -46 143 -50 182 -7 69 75 61
116 -47 262 -32 44 -38 81 -16 110 10 14 21 17 51 12 45 -7 73 -30 93 -77 l15
-35 13 35 c16 45 16 50 2 50 -7 0 -27 14 -44 31 -40 38 -115 51 -150 25z"/>
<path d="M13217 5359 c-57 -14 -92 -35 -129 -79 -80 -93 -78 -232 5 -318 94
-98 232 -104 336 -15 56 48 81 101 81 178 0 64 -30 145 -66 177 -58 50 -156
75 -227 57z m114 -54 c146 -50 187 -224 76 -322 -66 -58 -143 -66 -227 -23
-158 80 -140 299 28 350 42 13 75 11 123 -5z"/>
<path d="M7130 5166 c-88 -46 -137 -142 -127 -244 14 -130 135 -226 265 -208
58 8 142 54 142 77 0 16 -5 15 -52 -9 -105 -54 -216 -28 -273 63 -25 41 -30
58 -30 115 0 86 33 141 102 172 84 37 207 2 240 -67 9 -19 20 -35 24 -35 4 0
9 20 11 45 l3 46 -70 34 c-89 44 -166 48 -235 11z"/>
<path d="M12401 5091 c-14 -4 -28 -17 -32 -31 -4 -14 -20 -68 -35 -120 -15
-52 -31 -99 -36 -105 -5 -5 -46 28 -103 85 l-95 94 -47 -12 c-56 -15 -84 -36
-36 -26 30 6 32 4 38 -27 15 -91 44 -381 38 -395 -5 -15 -1 -16 33 -10 48 10
50 11 30 31 -9 9 -16 17 -16 18 0 1 -9 72 -20 157 -11 85 -20 164 -20 175 0
14 29 -9 105 -85 68 -67 108 -101 113 -93 4 6 23 68 42 137 19 69 37 126 40
126 3 0 34 -70 69 -155 43 -105 62 -164 58 -181 -5 -26 -4 -26 36 -20 51 8 54
11 35 33 -22 27 -160 373 -154 388 2 7 15 15 28 18 15 3 11 4 -12 5 -19 0 -46
-3 -59 -7z"/>
<path d="M8080 4955 c-164 -53 -221 -253 -110 -387 90 -109 280 -109 370 0 39
47 64 131 56 189 -19 144 -177 243 -316 198z m137 -46 c40 -15 92 -67 114
-114 37 -80 13 -178 -56 -231 -30 -22 -50 -29 -100 -32 -92 -6 -155 33 -196
123 -43 93 -2 212 86 251 36 16 113 18 152 3z"/>
<path d="M8888 4827 c6 -7 45 -111 86 -232 42 -120 80 -223 86 -229 15 -15 27
2 135 194 54 96 106 187 117 202 10 14 18 28 18 31 0 3 -18 7 -40 9 -36 3 -39
2 -34 -18 4 -14 -22 -70 -82 -179 -70 -127 -89 -154 -96 -140 -18 31 -108 309
-108 332 0 13 6 23 13 24 22 2 -38 17 -72 18 -26 1 -31 -2 -23 -12z"/>
<path d="M10695 4803 c-81 -6 -99 -11 -85 -28 14 -17 43 -340 37 -403 -4 -35
-2 -42 10 -38 8 3 28 6 45 6 27 0 29 2 17 17 -13 15 -51 378 -42 396 6 11 112
8 134 -4 28 -15 42 -55 27 -82 -16 -31 -37 -45 -85 -58 -48 -13 -56 -34 -17
-43 52 -13 186 -168 169 -196 -4 -6 11 -10 39 -10 25 0 46 5 46 10 0 6 -4 10
-8 10 -5 0 -26 25 -47 55 -37 54 -77 95 -125 126 l-25 16 43 22 c58 30 80 75
63 131 -18 61 -75 82 -196 73z"/>
<path d="M9806 4763 c11 -22 12 -375 2 -420 l-7 -33 148 0 c146 0 149 0 155
23 9 35 7 38 -13 27 -23 -12 -72 -13 -160 -4 l-61 7 0 94 0 95 98 -4 c53 -2
105 -8 115 -12 14 -7 17 -3 17 25 l0 34 -115 -3 -115 -4 0 71 0 71 113 0 c75
0 117 -4 125 -12 15 -15 15 -6 1 25 -10 23 -17 24 -122 30 -179 11 -191 10
-181 -10z"/>
</g>
</svg>
