<?xml version="1.0" standalone="no"?>
<!DOCTYPE svg PUBLIC "-//W3C//DTD SVG 20010904//EN"
 "http://www.w3.org/TR/2001/REC-SVG-20010904/DTD/svg10.dtd">
<svg version="1.0" xmlns="http://www.w3.org/2000/svg"
 width="2000.000000pt" height="2000.000000pt" viewBox="0 0 2000.000000 2000.000000"
 preserveAspectRatio="xMidYMid meet">

<g transform="translate(0.000000,2000.000000) scale(0.100000,-0.100000)"
fill="#000000" stroke="none">
<path d="M0 10000 l0 -10000 10000 0 10000 0 0 10000 0 10000 -10000 0 -10000
0 0 -10000z m10364 5865 c99 -127 130 -168 290 -377 84 -109 306 -397 469
-607 54 -69 108 -139 120 -155 12 -16 63 -82 112 -146 50 -64 124 -160 165
-214 41 -54 111 -144 155 -201 44 -56 152 -196 240 -311 88 -114 195 -253 238
-308 43 -56 122 -159 177 -231 55 -71 121 -157 146 -190 26 -33 50 -60 55 -60
5 0 47 50 94 110 48 61 123 157 168 214 45 58 85 108 88 113 11 16 34 -3 99
-83 77 -96 82 -102 140 -169 24 -29 69 -83 100 -121 30 -37 125 -152 210 -255
85 -103 171 -206 190 -230 19 -23 96 -116 170 -205 74 -89 146 -176 160 -193
14 -18 46 -57 71 -87 25 -30 111 -133 190 -229 80 -96 208 -251 285 -345 302
-363 513 -619 682 -824 183 -220 239 -288 276 -331 129 -150 160 -200 125
-200 -8 0 -233 191 -259 220 -3 3 -59 52 -125 110 -66 57 -151 132 -190 166
-87 77 -260 230 -665 584 -172 151 -377 331 -454 400 -78 69 -173 152 -210
185 -38 33 -74 65 -80 70 -6 6 -63 55 -126 110 -63 54 -131 113 -150 131 -121
110 -357 316 -366 320 -6 3 -307 -174 -670 -392 -362 -218 -672 -404 -689
-414 -16 -9 -83 -49 -147 -89 -65 -39 -122 -71 -128 -71 -28 0 4 52 141 230
83 107 213 276 289 375 76 99 197 257 269 350 72 94 131 176 131 182 0 7 -39
57 -87 111 -49 54 -171 194 -273 312 -102 117 -241 277 -310 355 -69 77 -163
185 -210 239 -98 114 -136 158 -179 205 -36 40 -36 40 -21 -79 5 -41 14 -120
20 -175 6 -55 17 -145 25 -200 27 -197 28 -215 11 -221 -19 -7 -34 6 -504 430
-184 165 -337 302 -341 304 -4 1 -39 -64 -78 -145 -144 -301 -176 -363 -189
-363 -18 0 -25 78 -57 717 -7 127 -15 234 -18 237 -3 4 -33 -35 -66 -86 -34
-51 -117 -178 -185 -283 -68 -104 -158 -241 -199 -304 -102 -157 -369 -568
-472 -726 -47 -71 -139 -213 -205 -315 -66 -102 -167 -256 -224 -342 -137
-211 -157 -210 -93 1 20 64 47 154 61 201 14 47 31 103 39 125 7 22 27 90 45
150 17 61 36 121 41 135 5 14 15 48 23 75 11 43 34 117 130 435 10 30 20 61
23 69 4 11 -5 12 -48 7 -30 -3 -74 -8 -99 -11 -25 -2 -105 -11 -178 -19 -74
-9 -136 -16 -137 -16 -6 0 -63 -85 -210 -315 -436 -679 -574 -894 -595 -925
-5 -8 -80 -125 -166 -260 -86 -135 -202 -316 -258 -402 -55 -87 -159 -250
-231 -362 -80 -126 -136 -205 -146 -206 -18 0 -19 5 -44 175 -8 55 -24 159
-35 230 -12 72 -27 173 -35 225 -8 52 -23 154 -34 225 -11 72 -28 185 -38 253
-10 67 -20 122 -23 122 -8 0 -62 -49 -215 -199 -77 -75 -194 -187 -260 -250
-66 -63 -187 -180 -270 -260 -82 -81 -208 -202 -280 -270 -71 -68 -197 -190
-280 -270 -130 -127 -403 -390 -724 -696 -51 -50 -98 -90 -104 -90 -26 0 -11
29 74 140 150 198 378 495 518 677 36 45 94 121 130 168 36 47 104 137 153
200 48 63 175 228 281 366 217 285 195 256 359 469 68 88 168 219 223 290 54
72 115 151 134 176 57 73 129 167 200 259 36 47 79 103 95 125 17 22 37 46 44
53 6 7 17 22 22 33 6 10 17 19 24 19 7 0 102 -90 210 -201 167 -170 199 -199
209 -186 7 8 44 57 84 109 40 51 99 127 131 168 32 41 89 116 127 165 37 50
110 144 161 210 52 66 138 177 191 247 54 69 131 169 172 221 58 76 80 97 105
102 17 3 63 13 101 21 39 8 129 25 200 38 72 13 198 36 282 52 l152 28 83 109
c183 240 373 488 461 602 50 65 129 168 175 228 45 59 135 176 199 260 64 84
153 199 197 257 280 367 285 373 303 358 9 -7 61 -71 117 -143z m1825 -6350
c77 -19 162 -62 216 -111 l39 -37 -64 -59 c-107 -97 -104 -96 -147 -58 -127
112 -338 81 -411 -62 -19 -36 -24 -62 -24 -118 0 -102 36 -172 110 -217 78
-46 149 -52 250 -22 l32 11 0 124 0 124 115 0 115 0 -2 -192 -3 -193 -75 -37
c-139 -68 -348 -87 -485 -44 -130 40 -251 149 -297 266 -32 83 -37 228 -9 317
45 150 175 268 339 307 77 19 222 19 301 1z m-8599 -448 c110 -246 200 -449
200 -452 0 -3 -62 -4 -137 -3 l-137 3 -35 87 -36 88 -190 0 -190 0 -35 -90
-35 -90 -136 0 -137 0 202 455 201 455 133 -3 133 -2 199 -448z m921 421 c84
-33 133 -65 186 -119 76 -80 113 -178 113 -304 0 -206 -106 -353 -308 -428
-52 -19 -82 -21 -349 -25 l-293 -4 0 457 0 457 293 -4 c287 -4 293 -4 358 -30z
m618 6 c6 -14 59 -141 117 -282 58 -142 109 -261 114 -265 4 -5 15 11 25 35 9
24 64 154 122 291 l106 247 130 0 c118 0 129 -1 124 -17 -3 -10 -87 -207 -187
-438 -100 -231 -184 -428 -187 -437 -5 -16 -20 -18 -138 -18 -97 0 -134 3
-138 13 -3 6 -85 197 -182 422 -97 226 -183 425 -190 443 l-14 32 143 0 143 0
12 -26z m1541 -74 l0 -100 -230 0 -230 0 0 -75 0 -75 200 0 200 0 0 -100 0
-100 -200 0 -200 0 0 -80 0 -80 235 0 235 0 0 -100 0 -100 -370 0 -370 0 0
455 0 455 365 0 365 0 0 -100z m562 -135 l193 -234 3 234 2 235 135 0 135 0 0
-455 0 -455 -113 0 -114 0 -194 232 -194 232 -3 -232 -2 -232 -130 0 -130 0 0
455 0 455 109 0 110 0 193 -235z m1378 130 l0 -105 -140 0 -140 0 0 -350 0
-350 -130 0 -130 0 0 350 0 350 -145 0 -145 0 0 105 0 105 415 0 415 0 0 -105z
m352 -187 c3 -273 4 -296 24 -333 14 -27 34 -47 64 -62 49 -25 77 -28 131 -13
44 12 70 34 95 80 17 32 19 63 22 328 l4 292 129 0 130 0 -3 -312 c-4 -361 -8
-383 -98 -481 -87 -95 -197 -133 -364 -125 -160 8 -261 57 -333 161 -61 91
-66 119 -71 455 l-4 302 136 0 135 0 3 -292z m1333 277 c162 -42 263 -164 265
-316 0 -112 -53 -217 -138 -268 l-41 -25 95 -137 c52 -76 94 -140 94 -143 0
-3 -62 -6 -139 -6 l-138 0 -82 120 -83 121 -66 -3 -67 -3 0 -118 0 -117 -132
0 -133 0 0 455 0 455 253 0 c195 0 266 -4 312 -15z m1125 -85 l0 -100 -230 0
-230 0 0 -75 0 -75 203 -2 202 -3 0 -95 0 -95 -202 -3 -203 -2 0 -80 0 -80
240 0 240 0 0 -100 0 -100 -370 0 -370 0 0 455 0 455 360 0 360 0 0 -100z
m1880 0 l0 -100 -230 0 -230 0 0 -75 0 -75 205 0 205 0 0 -100 0 -100 -205 0
-205 0 0 -80 0 -80 240 0 240 0 0 -100 0 -100 -370 0 -370 0 0 455 0 455 360
0 360 0 0 -100z m867 -243 c83 -188 174 -393 202 -454 l50 -113 -138 0 -139 0
-35 88 -35 87 -190 3 -190 2 -35 -87 -35 -88 -137 -3 c-108 -2 -136 0 -132 10
3 7 89 202 192 433 103 231 191 430 196 443 8 21 13 22 141 22 l133 0 152
-343z m865 332 c125 -27 230 -111 264 -211 25 -77 16 -210 -18 -270 -26 -42
-83 -101 -123 -124 -17 -9 -11 -22 71 -140 50 -71 94 -135 98 -141 6 -10 -24
-13 -136 -13 l-143 1 -80 119 -80 120 -67 0 -68 0 0 -120 0 -120 -135 0 -135
0 0 455 0 455 250 0 c146 0 271 -5 302 -11z m1058 -444 l0 -455 -135 0 -135 0
0 455 0 455 135 0 135 0 0 -455z m736 446 c185 -35 315 -143 366 -304 27 -84
21 -248 -11 -321 -51 -116 -136 -194 -267 -244 -68 -26 -74 -26 -361 -30
l-293 -4 0 456 0 456 259 0 c142 0 280 -4 307 -9z m-1208 -635 c52 -27 75 -62
79 -118 7 -91 -56 -158 -147 -158 -120 0 -192 120 -134 221 36 61 137 89 202
55z m-6838 -2226 c0 -18 -7 -20 -85 -20 l-85 0 0 -45 0 -45 75 0 c68 0 75 -2
75 -20 0 -18 -7 -20 -75 -20 l-75 0 0 -50 0 -50 90 0 c83 0 90 -1 90 -20 0
-19 -7 -20 -115 -20 l-115 0 0 155 0 155 110 0 c103 0 110 -1 110 -20z m429 9
c33 -12 36 -16 22 -38 -8 -12 -14 -13 -36 -3 -64 29 -149 -3 -125 -48 10 -19
14 -21 90 -40 59 -15 90 -45 90 -84 -1 -57 -43 -86 -127 -86 -42 0 -113 24
-113 39 0 3 4 12 8 19 7 10 16 9 45 -3 69 -29 137 -14 137 29 0 25 -9 30 -108
61 -29 9 -57 25 -62 35 -34 64 16 130 99 130 27 0 62 -5 80 -11z m501 -9 c0
-17 -7 -20 -52 -20 l-53 0 0 -132 c0 -130 0 -133 -22 -136 -23 -3 -23 -3 -23
132 l0 136 -55 0 c-48 0 -55 2 -55 20 0 19 7 20 130 20 123 0 130 -1 130 -20z
m683 0 c31 -24 43 -70 27 -102 -7 -13 -40 -51 -73 -85 l-61 -63 77 0 c70 0 77
-2 77 -20 0 -19 -7 -20 -115 -20 -86 0 -115 3 -115 13 0 7 36 48 79 91 44 44
82 90 86 104 13 52 -61 83 -113 46 -25 -17 -52 -13 -52 9 0 43 138 63 183 27z
m462 -2 c35 -27 55 -75 55 -133 0 -121 -93 -190 -189 -140 -83 42 -84 235 -2
280 40 22 104 19 136 -7z m466 -7 c12 -14 19 -39 19 -63 0 -36 -7 -47 -67
-109 l-66 -69 76 0 c70 0 77 -2 77 -20 0 -19 -7 -20 -115 -20 -93 0 -115 3
-115 14 0 8 36 50 80 93 67 66 80 84 80 110 0 51 -51 68 -112 37 -27 -14 -32
-14 -46 -1 -13 14 -11 18 19 37 47 30 143 24 170 -9z m459 17 c0 -7 -18 -35
-40 -63 l-39 -49 29 -12 c69 -29 79 -117 17 -154 -40 -25 -120 -26 -165 -2
-28 16 -31 20 -19 35 12 17 15 17 42 3 38 -20 84 -20 113 0 44 31 17 84 -44
84 -46 0 -46 28 2 83 l35 42 -70 3 c-63 3 -71 5 -71 22 0 19 7 20 105 20 77 0
105 -3 105 -12z m-3780 -178 c0 -18 -7 -20 -60 -20 -53 0 -60 2 -60 20 0 18 7
20 60 20 53 0 60 -2 60 -20z m4440 0 c0 -18 -7 -20 -60 -20 -53 0 -60 2 -60
20 0 18 7 20 60 20 53 0 60 -2 60 -20z m-7127 -429 c64 -59 89 -149 63 -229
-36 -108 -137 -178 -246 -170 -45 3 -72 14 -138 53 l-83 48 24 21 c14 12 61
82 105 156 95 161 113 196 106 203 -3 3 -3 10 0 16 8 12 125 -56 169 -98z
m9565 80 c12 -11 22 -22 22 -25 0 -3 -10 -6 -22 -6 -17 0 -174 -84 -196 -105
-4 -4 58 -115 64 -115 19 0 164 95 169 111 9 28 17 24 43 -21 l23 -40 -22 0
c-26 0 -179 -87 -179 -102 0 -12 80 -148 87 -148 15 0 175 104 188 122 17 26
20 24 28 -19 6 -32 6 -32 -120 -108 -69 -42 -130 -77 -137 -78 -6 -1 -10 6 -8
16 4 21 -181 334 -214 362 l-24 20 128 77 c70 43 132 77 137 77 6 0 20 -8 33
-18z m-8908 -432 c0 -4 -7 -10 -16 -13 -18 -7 -184 -346 -184 -376 0 -24 -9
-25 -55 -3 -38 18 -43 28 -20 37 19 7 185 350 185 382 l0 24 45 -22 c25 -12
45 -25 45 -29z m8181 -28 c21 -22 29 -39 29 -66 0 -39 -19 -83 -44 -105 -14
-11 -8 -16 47 -35 34 -12 87 -37 117 -56 30 -20 64 -39 75 -43 18 -7 14 -11
-25 -31 -53 -28 -60 -30 -60 -11 0 37 -143 118 -215 122 -21 1 -41 7 -43 12
-2 6 17 31 42 55 52 49 59 84 25 118 -16 16 -28 19 -54 15 -33 -6 -95 -34 -95
-42 0 -2 38 -82 84 -178 58 -121 89 -175 102 -178 15 -3 9 -9 -23 -26 -54 -28
-63 -28 -63 2 0 36 -164 372 -186 381 -15 6 0 16 70 51 114 56 172 60 217 15z
m-7636 -210 c22 -10 46 -25 54 -34 7 -10 20 -17 27 -17 17 0 17 -13 3 -62 -11
-40 -29 -51 -29 -18 0 30 -60 89 -97 96 -26 5 -34 2 -48 -19 -16 -24 -15 -28
4 -69 12 -24 39 -65 61 -93 61 -77 64 -132 11 -195 -24 -29 -35 -34 -84 -38
-50 -4 -63 -1 -97 22 -22 14 -47 26 -55 26 -13 0 -15 10 -13 47 4 56 18 64 38
20 17 -37 93 -80 125 -71 30 9 55 43 55 76 0 34 -12 59 -51 108 -40 50 -72
126 -63 153 13 43 64 85 104 86 8 0 33 -8 55 -18z m6867 -115 c155 -74 184
-291 55 -401 -126 -108 -313 -75 -390 70 -33 62 -31 165 6 227 31 53 79 94
134 114 49 18 147 13 195 -10z m-6009 -188 c65 -32 66 -34 66 -73 1 -39 -16
-80 -25 -60 -31 74 -100 117 -184 117 -58 0 -101 -21 -137 -69 -25 -33 -28
-44 -28 -114 0 -70 3 -81 30 -121 17 -23 46 -51 65 -60 52 -27 136 -24 196 7
30 15 52 21 58 15 14 -14 -13 -40 -69 -66 -121 -57 -266 -8 -327 110 -34 64
-31 156 6 224 72 129 205 163 349 90z m5127 -57 c0 -5 -13 -12 -30 -16 l-29
-6 23 -62 c62 -160 136 -332 146 -335 21 -7 9 -20 -26 -26 -19 -4 -43 -10 -51
-13 -13 -5 -15 -1 -10 19 5 18 -12 70 -57 184 l-64 158 -20 -69 c-11 -39 -28
-98 -38 -132 -11 -44 -21 -63 -33 -63 -8 0 -57 42 -108 92 -108 107 -102 115
-74 -102 14 -103 24 -147 35 -156 23 -16 20 -21 -20 -28 -19 -4 -42 -10 -50
-13 -11 -4 -13 1 -8 23 5 26 -30 380 -41 411 -3 9 -11 10 -29 3 -39 -14 -42 7
-4 23 86 36 82 37 188 -68 l96 -96 18 63 c54 198 54 196 99 207 56 12 87 13
87 2z m-4250 -152 c137 -62 191 -202 127 -330 -47 -93 -142 -146 -244 -136
-115 12 -200 88 -222 200 -13 62 -4 108 33 171 60 103 196 145 306 95z m745
-119 c3 -5 2 -10 -3 -10 -24 0 -17 -40 35 -195 30 -91 57 -164 59 -162 2 2 40
68 84 148 63 112 80 150 76 172 -6 30 3 33 61 21 l30 -6 -126 -221 c-69 -121
-131 -222 -138 -224 -17 -6 -28 19 -113 264 l-77 223 53 0 c29 0 56 -4 59 -10z
m1839 -34 c90 -37 88 -157 -3 -201 l-36 -17 30 -21 c40 -29 113 -106 130 -139
8 -15 23 -31 32 -37 25 -14 13 -21 -45 -28 -48 -5 -50 -4 -45 15 9 37 -121
192 -161 192 -21 0 -42 39 -24 44 7 2 32 9 55 15 107 29 90 141 -21 141 -69 0
-68 5 -51 -195 16 -193 20 -215 38 -216 27 -1 -31 -18 -65 -18 -38 -1 -46 6
-29 25 14 14 -22 417 -37 422 -28 9 -8 21 41 25 117 8 159 6 191 -7z m-719
-48 c14 -34 4 -51 -18 -29 -7 7 -53 11 -119 11 l-108 0 0 -70 0 -70 99 0 c56
0 103 4 106 10 14 23 25 7 25 -35 0 -42 -11 -58 -25 -35 -3 6 -50 10 -106 10
l-99 0 0 -90 0 -90 114 0 c82 0 116 3 119 13 9 25 19 -3 10 -30 l-10 -28 -157
-3 c-149 -2 -158 -1 -150 15 13 27 17 414 4 427 -5 5 -10 14 -10 18 0 4 70 8
155 8 l156 0 14 -32z"/>
<path d="M3250 9249 c0 -3 -24 -65 -54 -137 l-55 -132 115 0 114 0 -13 33 c-7
17 -31 75 -52 127 -34 83 -55 125 -55 109z"/>
<path d="M4130 9064 l0 -246 118 4 c135 5 188 23 239 81 38 44 53 91 53 172 0
77 -29 138 -87 181 -51 39 -116 54 -233 54 l-90 0 0 -246z"/>
<path d="M9990 9185 l0 -135 83 0 c155 1 206 29 214 117 11 108 -49 152 -204
153 l-93 0 0 -135z"/>
<path d="M13872 9233 c-12 -22 -102 -242 -102 -248 0 -3 50 -5 110 -5 61 0
110 3 110 6 0 6 -101 257 -106 262 -1 2 -7 -5 -12 -15z"/>
<path d="M14750 9185 l0 -137 103 4 c112 4 153 19 177 62 18 36 17 109 -3 140
-33 49 -63 60 -174 64 l-103 4 0 -137z"/>
<path d="M16530 9065 l0 -247 118 4 c127 5 176 19 226 66 45 43 66 97 66 177
0 80 -21 134 -66 177 -50 47 -99 61 -226 66 l-118 4 0 -247z"/>
<path d="M10736 6607 c-48 -48 -39 -165 15 -196 58 -32 109 16 109 104 0 100
-67 149 -124 92z"/>
<path d="M5105 5925 c-47 -80 -88 -152 -91 -159 -8 -20 84 -66 130 -66 50 0
79 14 119 55 64 66 83 169 42 231 -16 24 -91 84 -106 84 -4 0 -46 -65 -94
-145z"/>
<path d="M13165 5287 c-96 -55 -115 -198 -37 -280 70 -74 169 -91 248 -41 66
41 86 82 82 165 -3 53 -9 73 -30 102 -58 75 -181 100 -263 54z"/>
<path d="M8075 4906 c-68 -31 -105 -92 -105 -171 0 -165 189 -265 307 -162
127 112 53 328 -118 343 -35 3 -65 -1 -84 -10z"/>
</g>
</svg>
